# Blender 4.4.3
# www.blender.org
mtllib invader01-crab.mtl
o Cube
v 0.249492 -0.483795 -0.140440
v 0.249492 -0.483795 0.486001
v 0.249492 0.318328 0.504933
v 1.266692 0.226394 -0.292769
v 1.217949 -0.223710 -0.246153
v 0.249492 0.161265 0.630519
v 0.249492 -0.161265 0.630519
v 0.249492 0.161265 -0.332969
v 0.249492 -0.161265 -0.332969
v 0.748476 0.161265 -0.630519
v 0.748476 -0.161265 -0.630519
v 1.102487 -0.217489 1.612185
v 1.102487 -0.427571 1.612185
v 0.893448 -0.427571 1.612185
v 1.102487 0.427571 1.612185
v 0.893448 0.427571 1.612185
v 0.893448 -0.217489 1.612185
v 1.102487 0.217489 1.612185
v 0.893448 0.217489 1.612185
v 1.712214 0.226394 -0.559150
v 1.760574 -0.230555 -0.474287
v 1.608192 0.161265 0.312486
v 1.651425 -0.161265 0.312486
v 0.666322 0.137197 -2.299181
v 0.620115 -0.133293 -2.371648
v 1.097856 0.137197 -2.573358
v 1.090668 -0.133293 -2.670615
v 1.361021 0.161738 0.508364
v 1.495676 0.161738 0.417554
v 1.642436 0.237087 -0.334111
v 1.444416 0.237087 -0.334111
v 1.444416 -0.237216 -0.334111
v 1.642436 -0.237216 -0.334111
v 1.516770 -0.161265 0.470191
v 1.382115 -0.161265 0.561001
v 1.051891 0.111340 -2.304958
v 0.873557 0.111340 -2.191652
v 0.873557 -0.111468 -2.191652
v 1.051891 -0.111468 -2.304958
v 1.247460 -0.483795 -0.374484
v 0.249492 0.318328 -0.137348
v 0.748476 -0.483795 -0.374484
v 1.246396 -0.237216 0.042405
v 1.246396 0.237087 0.042405
v 1.840456 -0.237216 -0.052552
v 1.795006 0.237087 -0.020899
v 1.102487 -0.217489 1.064108
v 1.102487 -0.427571 1.064108
v 0.893448 -0.427571 1.064108
v 1.102487 0.427571 1.064108
v 0.893448 0.427571 1.064108
v 0.893448 -0.217489 1.064108
v 1.102487 0.217489 1.064108
v 0.893448 0.217489 1.064108
v 1.247460 -0.441715 0.630519
v 1.138957 -0.483795 0.599094
v 1.247460 -0.483795 0.575677
v 1.138957 0.483795 0.603210
v 0.856979 -0.483795 0.517426
v 0.748476 -0.441715 0.504856
v 0.639973 -0.483795 0.486001
v 0.748476 -0.483795 0.431159
v 0.748476 0.441715 0.521318
v 0.856979 0.483795 0.532241
v 0.748476 0.483795 0.450091
v 0.666009 0.456448 0.504933
v 1.247460 0.203345 0.630519
v 1.138957 0.161265 0.630519
v 1.247460 0.119185 0.630519
v 1.284986 0.161738 0.531732
v 1.247460 0.161265 0.575677
v 1.138957 -0.161265 0.630519
v 1.247460 -0.203345 0.630519
v 1.247460 -0.161265 0.575677
v 1.306079 -0.161265 0.584369
v 1.247460 -0.119185 0.630519
v 0.856979 0.161265 0.630519
v 0.748476 0.203345 0.614134
v 0.639973 0.161265 0.630519
v 0.748476 0.119185 0.630519
v 0.748476 -0.203345 0.611664
v 0.856979 -0.161265 0.630519
v 0.748476 -0.119185 0.630519
v 0.639973 -0.161265 0.630519
v 1.247460 -0.203345 1.557343
v 1.138957 -0.161265 1.557343
v 1.138957 -0.203345 1.612185
v 1.138957 -0.441715 1.612185
v 1.138957 -0.483795 1.557343
v 1.247460 -0.441715 1.557343
v 0.856979 -0.441715 1.612185
v 0.748476 -0.441715 1.557343
v 0.856979 -0.483795 1.557343
v 1.138957 0.441715 1.612185
v 1.247460 0.441715 1.557343
v 1.138957 0.483795 1.557343
v 0.856979 0.483795 1.557343
v 0.748476 0.441715 1.557343
v 0.856979 0.441715 1.612185
v 0.856979 -0.203345 1.612185
v 0.856979 -0.161265 1.557343
v 0.748476 -0.203345 1.557343
v 1.138957 0.203345 1.612185
v 1.138957 0.161265 1.557343
v 1.247460 0.203345 1.557343
v 0.748476 0.203345 1.557343
v 0.856979 0.161265 1.557343
v 0.856979 0.203345 1.612185
v 1.246396 0.078986 -0.334111
v 1.246396 -0.079115 -0.334111
v 0.249492 0.053755 0.630519
v 0.249492 -0.053755 0.630519
v 0.249492 0.053755 -0.332969
v 0.249492 -0.053755 -0.332969
v 0.748476 0.053755 -0.630519
v 0.748476 -0.053755 -0.630519
v 1.840456 0.078986 -0.334111
v 1.840456 -0.079115 -0.334111
v 1.651425 0.053755 0.312486
v 1.651425 -0.053755 0.312486
v 0.543791 0.042125 -2.491350
v 0.543791 -0.042254 -2.491350
v 1.078794 0.042125 -2.831266
v 1.078794 -0.042254 -2.831266
v 0.873557 0.037070 -2.191652
v 0.873557 -0.037199 -2.191652
v 1.051891 0.037070 -2.304958
v 1.051891 -0.037199 -2.304958
v 1.382115 -0.053755 0.561001
v 1.382115 0.053755 0.561001
v 1.516770 -0.053755 0.470191
v 1.516770 0.053755 0.470191
v 1.810156 0.078986 -0.031450
v 1.825306 -0.079115 -0.042001
v 0.249492 -0.053755 -0.126386
v 0.249492 -0.161265 -0.126386
v 0.748476 -0.053755 -0.423936
v 0.748476 -0.161265 -0.423936
v 0.249492 0.053755 -0.126386
v 0.748476 0.053755 -0.423936
v 1.161722 0.483795 -0.385067
v 1.247460 0.450544 -0.374484
v 1.227757 0.507335 -0.345544
v 1.247460 0.450544 0.619012
v 1.249066 0.445407 -0.627246
v 1.169058 0.483795 -0.599967
v 1.247460 0.450544 -0.374484
v 1.227757 0.507335 -0.345544
v 0.716703 0.920969 -0.037404
v 0.918560 0.920969 -0.037404
v 0.918560 0.841996 0.038966
v 0.967016 0.818725 0.037261
v 0.716703 0.841996 0.038966
v 0.805390 0.483795 -0.458253
v 0.710869 0.471324 -0.413561
v 1.224252 0.518523 -0.538798
v 0.814164 0.483795 -0.331886
v 0.748476 0.483795 -0.365436
v 0.748476 0.483795 -0.288185
v 0.746051 0.920597 -0.061231
v 0.679504 0.898031 -0.039226
v 0.716664 0.920968 -0.037428
v 0.965390 0.901337 -0.043099
v 0.897387 0.921742 -0.062762
v 0.920466 0.921022 -0.038473
v 0.679698 0.839347 0.017513
v 0.746463 0.818162 0.037952
v 0.713876 0.840158 0.038904
v 0.000000 -0.483795 -0.140440
v 0.000000 -0.483795 0.486001
v 0.000000 0.318328 0.504933
v 0.000000 -0.161265 -0.332969
v 0.000000 0.161265 -0.332969
v 0.000000 -0.161265 0.630519
v 0.000000 0.161265 0.630519
v 0.000000 0.318328 -0.137348
v 0.000000 -0.053755 0.630519
v 0.000000 0.053755 0.630519
v 0.000000 -0.053755 -0.332969
v 0.000000 0.053755 -0.332969
v -0.249492 -0.483795 -0.140440
v -0.249492 -0.483795 0.486001
v -0.249492 0.318328 0.504933
v -1.266692 0.226394 -0.292769
v -1.217949 -0.223710 -0.246153
v -0.249492 0.161265 0.630519
v -0.249492 -0.161265 0.630519
v -0.249492 0.161265 -0.332969
v -0.249492 -0.161265 -0.332969
v -0.748476 0.161265 -0.630519
v -0.748476 -0.161265 -0.630519
v -1.102487 -0.217489 1.612185
v -1.102487 -0.427571 1.612185
v -0.893448 -0.427571 1.612185
v -1.102487 0.427571 1.612185
v -0.893448 0.427571 1.612185
v -0.893448 -0.217489 1.612185
v -1.102487 0.217489 1.612185
v -0.893448 0.217489 1.612185
v -1.712214 0.226394 -0.559150
v -1.760574 -0.230555 -0.474287
v -1.608192 0.161265 0.312486
v -1.651425 -0.161265 0.312486
v -0.666322 0.137197 -2.299181
v -0.620115 -0.133293 -2.371648
v -1.097856 0.137197 -2.573358
v -1.090668 -0.133293 -2.670615
v -1.361021 0.161738 0.508364
v -1.495676 0.161738 0.417554
v -1.642436 0.237087 -0.334111
v -1.444416 0.237087 -0.334111
v -1.444416 -0.237216 -0.334111
v -1.642436 -0.237216 -0.334111
v -1.516770 -0.161265 0.470191
v -1.382115 -0.161265 0.561001
v -1.051891 0.111340 -2.304958
v -0.873557 0.111340 -2.191652
v -0.873557 -0.111468 -2.191652
v -1.051891 -0.111468 -2.304958
v -1.247460 -0.483795 -0.374484
v -0.249492 0.318328 -0.137348
v -0.748476 -0.483795 -0.374484
v -1.246396 -0.237216 0.042405
v -1.246396 0.237087 0.042405
v -1.840456 -0.237216 -0.052552
v -1.795006 0.237087 -0.020899
v -1.102487 -0.217489 1.064108
v -1.102487 -0.427571 1.064108
v -0.893448 -0.427571 1.064108
v -1.102487 0.427571 1.064108
v -0.893448 0.427571 1.064108
v -0.893448 -0.217489 1.064108
v -1.102487 0.217489 1.064108
v -0.893448 0.217489 1.064108
v -1.247460 -0.441715 0.630519
v -1.138957 -0.483795 0.599094
v -1.247460 -0.483795 0.575677
v -1.138957 0.483795 0.603210
v -0.856979 -0.483795 0.517426
v -0.748476 -0.441715 0.504856
v -0.639973 -0.483795 0.486001
v -0.748476 -0.483795 0.431159
v -0.748476 0.441715 0.521318
v -0.856979 0.483795 0.532241
v -0.748476 0.483795 0.450091
v -0.666009 0.456448 0.504933
v -1.247460 0.203345 0.630519
v -1.138957 0.161265 0.630519
v -1.247460 0.119185 0.630519
v -1.284986 0.161738 0.531732
v -1.247460 0.161265 0.575677
v -1.138957 -0.161265 0.630519
v -1.247460 -0.203345 0.630519
v -1.247460 -0.161265 0.575677
v -1.306079 -0.161265 0.584369
v -1.247460 -0.119185 0.630519
v -0.856979 0.161265 0.630519
v -0.748476 0.203345 0.614134
v -0.639973 0.161265 0.630519
v -0.748476 0.119185 0.630519
v -0.748476 -0.203345 0.611664
v -0.856979 -0.161265 0.630519
v -0.748476 -0.119185 0.630519
v -0.639973 -0.161265 0.630519
v -1.247460 -0.203345 1.557343
v -1.138957 -0.161265 1.557343
v -1.138957 -0.203345 1.612185
v -1.138957 -0.441715 1.612185
v -1.138957 -0.483795 1.557343
v -1.247460 -0.441715 1.557343
v -0.856979 -0.441715 1.612185
v -0.748476 -0.441715 1.557343
v -0.856979 -0.483795 1.557343
v -1.138957 0.441715 1.612185
v -1.247460 0.441715 1.557343
v -1.138957 0.483795 1.557343
v -0.856979 0.483795 1.557343
v -0.748476 0.441715 1.557343
v -0.856979 0.441715 1.612185
v -0.856979 -0.203345 1.612185
v -0.856979 -0.161265 1.557343
v -0.748476 -0.203345 1.557343
v -1.138957 0.203345 1.612185
v -1.138957 0.161265 1.557343
v -1.247460 0.203345 1.557343
v -0.748476 0.203345 1.557343
v -0.856979 0.161265 1.557343
v -0.856979 0.203345 1.612185
v -1.246396 0.078986 -0.334111
v -1.246396 -0.079115 -0.334111
v -0.249492 0.053755 0.630519
v -0.249492 -0.053755 0.630519
v -0.249492 0.053755 -0.332969
v -0.249492 -0.053755 -0.332969
v -0.748476 0.053755 -0.630519
v -0.748476 -0.053755 -0.630519
v -1.840456 0.078986 -0.334111
v -1.840456 -0.079115 -0.334111
v -1.651425 0.053755 0.312486
v -1.651425 -0.053755 0.312486
v -0.543791 0.042125 -2.491350
v -0.543791 -0.042254 -2.491350
v -1.078794 0.042125 -2.831266
v -1.078794 -0.042254 -2.831266
v -0.873557 0.037070 -2.191652
v -0.873557 -0.037199 -2.191652
v -1.051891 0.037070 -2.304958
v -1.051891 -0.037199 -2.304958
v -1.382115 -0.053755 0.561001
v -1.382115 0.053755 0.561001
v -1.516770 -0.053755 0.470191
v -1.516770 0.053755 0.470191
v -1.810156 0.078986 -0.031450
v -1.825306 -0.079115 -0.042001
v -0.249492 -0.053755 -0.126386
v -0.249492 -0.161265 -0.126386
v -0.748476 -0.053755 -0.423936
v -0.748476 -0.161265 -0.423936
v -0.249492 0.053755 -0.126386
v -0.748476 0.053755 -0.423936
v -1.161722 0.483795 -0.385067
v -1.247460 0.450544 -0.374484
v -1.227757 0.507335 -0.345544
v -1.247460 0.450544 0.619012
v -1.249066 0.445407 -0.627246
v -1.169058 0.483795 -0.599967
v -1.247460 0.450544 -0.374484
v -1.227757 0.507335 -0.345544
v -0.716703 0.920969 -0.037404
v -0.918560 0.920969 -0.037404
v -0.918560 0.841996 0.038966
v -0.967016 0.818725 0.037261
v -0.716703 0.841996 0.038966
v -0.805390 0.483795 -0.458253
v -0.710869 0.471324 -0.413561
v -1.224252 0.518523 -0.538798
v -0.814164 0.483795 -0.331886
v -0.748476 0.483795 -0.365436
v -0.748476 0.483795 -0.288185
v -0.746051 0.920597 -0.061231
v -0.679504 0.898031 -0.039226
v -0.716664 0.920968 -0.037428
v -0.965390 0.901337 -0.043099
v -0.897387 0.921742 -0.062762
v -0.920466 0.921022 -0.038473
v -0.679698 0.839347 0.017513
v -0.746463 0.818162 0.037952
v -0.713876 0.840158 0.038904
vn -0.4208 0.6306 0.6522
vn 1.0000 -0.0000 -0.0000
vn -0.0000 -1.0000 -0.0000
vn -0.0000 1.0000 -0.0000
vn 0.4361 -0.0566 0.8981
vn -0.0032 0.3953 0.9186
vn 1.0000 0.0004 -0.0018
vn -1.0000 -0.0000 -0.0000
vn -0.0000 0.7798 -0.6261
vn -0.3148 0.9492 -0.0000
vn -0.3736 -0.4754 -0.7965
vn -0.5122 -0.0000 -0.8589
vn -0.0000 -0.5126 -0.8587
vn -0.0000 -0.0000 -1.0000
vn -0.0000 -0.0000 1.0000
vn 0.3788 0.8337 0.4019
vn -0.0000 0.4425 -0.8968
vn 0.5115 -0.0000 -0.8593
vn 0.0456 0.9879 0.1485
vn -0.0000 -0.4089 0.9126
vn 0.9048 0.0585 0.4219
vn 0.0307 -0.9993 -0.0216
vn 0.7605 -0.0000 0.6493
vn -0.0267 0.9981 -0.0557
vn -0.9485 0.3135 -0.0455
vn -0.0765 -0.9961 -0.0439
vn 0.8866 -0.3712 -0.2759
vn -0.8097 0.5288 0.2547
vn -0.2451 -0.9690 0.0318
vn -0.0000 -0.9980 -0.0637
vn 0.5778 0.5226 -0.6270
vn -0.5363 -0.0000 -0.8440
vn 0.1716 0.9806 -0.0949
vn -0.0359 0.9978 -0.0565
vn 0.5591 -0.0000 0.8291
vn -0.0747 -0.9964 -0.0393
vn 0.0212 0.9828 0.1833
vn -0.0684 0.9970 -0.0359
vn 0.0830 -0.9889 0.1231
vn 0.4802 -0.7754 0.4100
vn 0.9911 0.0884 0.0992
vn 0.0595 0.9978 -0.0290
vn 0.9837 0.1559 -0.0897
vn 0.0988 -0.7570 0.6459
vn -0.2675 0.6761 -0.6865
vn -0.9914 -0.0924 -0.0922
vn 0.1303 -0.7866 0.6036
vn -0.3668 -0.8079 0.4613
vn -0.3594 0.8034 0.4747
vn 0.2941 0.7583 0.5818
vn -0.0739 0.1906 0.9789
vn 0.0845 -0.2178 0.9723
vn 0.2941 -0.7583 0.5818
vn -0.2941 -0.7583 0.5818
vn -0.2941 0.7583 0.5818
vn 0.4511 -0.0000 0.8925
vn -0.0000 -0.7934 0.6087
vn -0.0000 0.7934 0.6087
vn -0.4511 -0.0000 0.8925
vn -0.3616 -0.9323 -0.0000
vn -0.3616 0.9323 -0.0000
vn 0.3616 -0.9323 -0.0000
vn 0.2930 0.9561 -0.0000
vn 0.3616 0.9323 -0.0000
vn 0.9291 -0.3225 -0.1811
vn 0.9987 -0.0000 0.0518
vn 0.4974 0.4567 0.7376
vn 0.5790 -0.0000 -0.8153
vn 0.6726 -0.0000 -0.7400
vn -0.9013 0.3403 0.2680
vn -0.9508 -0.0000 0.3097
vn 0.8955 0.3392 -0.2882
vn 0.9565 -0.0000 -0.2917
vn -0.9944 -0.0000 -0.1055
vn -0.9987 -0.0000 -0.0510
vn 0.6140 0.4395 0.6556
vn 0.8913 0.0554 0.4500
vn 0.8980 0.0569 0.4364
vn 0.4986 -0.5200 -0.6935
vn 1.0000 0.0071 0.0062
vn 0.0527 0.8598 0.5079
vn 0.9450 0.3270 0.0018
vn 0.7797 0.6257 0.0221
vn -0.0000 0.6952 0.7189
vn -0.0739 -0.7977 0.5985
vn -0.2985 -0.5135 0.8045
vn 0.3541 0.6502 0.6722
vn -0.0000 -0.0425 0.9991
vn -0.0000 0.9995 0.0305
vn -0.4509 0.4744 -0.7561
vn -0.4246 0.7299 -0.5356
vn 0.3545 0.8819 -0.3107
vn -0.4030 -0.6260 0.6677
vn 0.3722 0.8185 -0.4377
vn -0.4089 0.5828 -0.7023
vn -0.3141 -0.7232 0.6151
vn -0.2170 -0.7811 -0.5855
vn 0.1713 0.7824 -0.5987
vn -0.0000 0.6245 0.7810
vn 0.4208 0.6306 0.6522
vn -0.3838 -0.0713 0.9207
vn 0.0032 0.3953 0.9186
vn -1.0000 0.0004 -0.0018
vn 0.3148 0.9492 -0.0000
vn 0.3736 -0.4754 -0.7965
vn 0.5122 -0.0000 -0.8589
vn -0.3788 0.8337 0.4019
vn -0.4876 -0.5428 -0.6838
vn -0.5115 -0.0000 -0.8593
vn -0.1503 0.9788 0.1389
vn -0.9048 0.0585 0.4219
vn -0.0307 -0.9993 -0.0216
vn -0.7605 -0.0000 0.6493
vn 0.0267 0.9981 -0.0557
vn 0.9857 -0.0000 -0.1688
vn 0.0765 -0.9961 -0.0439
vn -0.9305 -0.2191 -0.2935
vn 0.9574 0.0521 0.2842
vn 0.0142 -0.9981 -0.0594
vn -0.5778 0.5226 -0.6270
vn 0.5363 -0.0000 -0.8440
vn 0.0706 0.9965 -0.0458
vn -0.0000 0.9980 -0.0637
vn -0.5591 -0.0000 0.8291
vn 0.0747 -0.9964 -0.0393
vn -0.0923 0.9863 0.1368
vn 0.0684 0.9970 -0.0359
vn -0.0830 -0.9889 0.1231
vn -0.4802 -0.7754 0.4100
vn -0.8429 0.5196 -0.1400
vn -0.0595 0.9978 -0.0290
vn -0.9837 0.1559 -0.0897
vn -0.0040 -0.7414 0.6710
vn 0.2675 0.6761 -0.6865
vn 0.5737 -0.5636 0.5944
vn -0.1303 -0.7866 0.6036
vn 0.3668 -0.8079 0.4613
vn 0.3594 0.8034 0.4747
vn 0.0739 0.1906 0.9789
vn -0.2930 0.9561 -0.0000
vn -0.9291 -0.3225 -0.1811
vn -0.9987 -0.0000 0.0518
vn -0.4974 0.4567 0.7376
vn -0.6271 -0.3732 -0.6837
vn -0.6726 -0.0000 -0.7400
vn 0.9013 0.3403 0.2680
vn 0.9508 -0.0000 0.3097
vn -0.8955 0.3392 -0.2882
vn -0.9565 -0.0000 -0.2917
vn 0.9944 -0.0000 -0.1055
vn 0.9987 -0.0000 -0.0510
vn -0.6140 0.4395 0.6556
vn -0.8913 0.0554 0.4500
vn -0.8980 0.0569 0.4364
vn -1.0000 0.0071 0.0062
vn -0.0527 0.8598 0.5079
vn -0.9468 0.3219 -0.0005
vn -0.7797 0.6257 0.0221
vn 0.0739 -0.7977 0.5985
vn 0.2985 -0.5135 0.8045
vn -0.3381 0.6545 0.6762
vn -0.0032 -0.0385 0.9993
vn 0.5351 0.6587 -0.5289
vn 0.4246 0.7299 -0.5356
vn -0.3545 0.8819 -0.3107
vn 0.4030 -0.6260 0.6677
vn -0.3722 0.8185 -0.4377
vn 0.4262 0.5787 -0.6954
vn 0.4020 -0.7146 0.5725
vn 0.2170 -0.7811 -0.5855
vn -0.1713 0.7824 -0.5987
vn -0.4204 0.6299 0.6530
vn -0.4231 0.6291 0.6521
vn -0.4235 0.6297 0.6512
vn 0.1335 0.8908 0.4344
vn 0.6186 -0.0000 0.7857
vn 0.2938 -0.0000 0.9559
vn 0.5722 0.4470 0.6876
vn -0.0000 0.3628 0.9318
vn -0.1195 0.3602 0.9252
vn -0.2028 0.6115 0.7648
vn 1.0000 0.0043 -0.0000
vn 1.0000 -0.0022 -0.0017
vn -0.4232 -0.5633 -0.7096
vn 0.9999 -0.0123 -0.0037
vn 0.4876 -0.5428 -0.6838
vn 0.5244 0.1622 -0.8359
vn 0.1503 0.9788 0.1389
vn 0.0154 -0.9899 0.1410
vn 0.7939 0.3193 0.5175
vn -0.2829 0.9581 0.0439
vn -0.9857 -0.0000 -0.1688
vn 0.1434 -0.9862 -0.0823
vn 0.9305 -0.2191 -0.2935
vn -0.9574 0.0521 0.2842
vn -0.0142 -0.9981 -0.0594
vn -0.0359 -0.9978 -0.0565
vn 0.4606 -0.0000 -0.8876
vn -0.0706 0.9965 -0.0458
vn 0.0923 0.9863 0.1368
vn 0.0254 -0.9869 0.1591
vn 0.8429 0.5196 -0.1400
vn 0.0040 -0.7414 0.6710
vn -0.0126 0.6716 -0.7408
vn -0.5737 -0.5636 0.5944
vn 0.2431 -0.8424 0.4810
vn 0.5750 0.6491 0.4980
vn -0.0899 -0.7902 0.6063
vn -0.0845 -0.2178 0.9723
vn 0.3616 0.9323 0.0088
vn 0.9944 0.0919 0.0516
vn 0.6271 -0.3732 -0.6837
vn -0.8848 -0.3712 0.2818
vn 0.8096 0.5288 -0.2548
vn -0.9761 -0.2118 -0.0479
vn 0.7272 0.2924 0.6210
vn 0.8978 -0.0000 0.4404
vn 0.9080 -0.0000 0.4190
vn 0.3607 0.9327 0.0083
vn 0.9852 0.1625 0.0545
vn 0.9468 0.3219 -0.0005
vn 0.9227 0.2780 0.2671
vn 0.3586 0.6489 0.6711
vn 0.3402 0.6591 0.6707
vn 0.0032 -0.0385 0.9993
vn 0.0033 -0.0662 0.9978
vn -0.0000 0.9993 -0.0366
vn -0.0072 0.9993 0.0365
vn -0.0078 0.9997 -0.0252
vn -0.5351 0.6587 -0.5289
vn 0.1408 0.8010 -0.5818
vn -0.4262 0.5787 -0.6954
vn -0.4020 -0.7146 0.5725
vn 0.4032 0.5570 -0.7261
vn -0.3131 -0.5064 -0.8035
vn -0.5065 -0.7334 -0.4535
vn 0.4205 0.6299 0.6530
vn 0.4235 0.6297 0.6512
vn 0.4231 0.6291 0.6521
vn -0.1335 0.8908 0.4344
vn -0.5722 0.4470 0.6876
vn -0.6186 -0.0000 0.7857
vn -0.2938 -0.0000 0.9559
vn -0.4587 -0.0000 0.8886
vn 0.2028 0.6115 0.7648
vn 0.1195 0.3602 0.9252
vn -1.0000 0.0043 -0.0000
vn -1.0000 -0.0022 -0.0017
vn 0.4232 -0.5633 -0.7096
vn -0.9999 -0.0123 -0.0037
vn -0.5244 0.1622 -0.8359
vn -0.0456 0.9879 0.1485
vn -0.0154 -0.9899 0.1410
vn -0.7939 0.3193 0.5175
vn 0.2829 0.9581 0.0439
vn 0.9485 0.3135 -0.0455
vn -0.1434 -0.9862 -0.0823
vn -0.8866 -0.3712 -0.2759
vn 0.8097 0.5288 0.2547
vn 0.2451 -0.9690 0.0318
vn 0.0359 -0.9978 -0.0565
vn -0.4606 -0.0000 -0.8876
vn -0.1716 0.9806 -0.0949
vn 0.0359 0.9978 -0.0565
vn -0.0212 0.9828 0.1833
vn -0.0254 -0.9869 0.1591
vn -0.9911 0.0884 0.0992
vn -0.0988 -0.7570 0.6459
vn 0.0126 0.6716 -0.7408
vn 0.9914 -0.0924 -0.0922
vn -0.2431 -0.8424 0.4810
vn -0.5750 0.6491 0.4980
vn 0.0899 -0.7902 0.6063
vn -0.3616 0.9323 0.0088
vn -0.9944 0.0919 0.0516
vn -0.5790 -0.0000 -0.8153
vn 0.8848 -0.3712 0.2818
vn -0.8096 0.5288 -0.2548
vn 0.9761 -0.2118 -0.0479
vn -0.7272 0.2924 0.6210
vn -0.8978 -0.0000 0.4404
vn -0.9080 -0.0000 0.4190
vn -0.4986 -0.5200 -0.6935
vn -0.3607 0.9327 0.0083
vn -0.9852 0.1625 0.0545
vn -0.9450 0.3270 0.0018
vn -0.9227 0.2780 0.2671
vn -0.3586 0.6489 0.6710
vn -0.3557 0.6552 0.6664
vn -0.0000 -0.0731 0.9973
vn 0.0078 0.9997 -0.0252
vn 0.0072 0.9993 0.0365
vn 0.4509 0.4744 -0.7561
vn -0.1408 0.8010 -0.5818
vn 0.4089 0.5828 -0.7023
vn 0.3141 -0.7232 0.6151
vn -0.4032 0.5570 -0.7261
vn 0.5065 -0.7334 -0.4535
vn 0.3131 -0.5064 -0.8035
vt 0.565899 0.842095
vt 0.574252 0.847154
vt 0.562520 0.847570
vt 0.597420 0.633662
vt 0.642360 0.766936
vt 0.607429 0.769590
vt 0.447423 0.351248
vt 0.306439 0.309744
vt 0.459438 0.309744
vt 0.148577 0.015970
vt 0.008155 0.057473
vt 0.008155 0.015970
vt 0.640033 0.406857
vt 0.681404 0.415484
vt 0.649809 0.426676
vt 0.556228 0.220331
vt 0.464062 0.183609
vt 0.556228 0.183609
vt 0.627682 0.333413
vt 0.590662 0.321275
vt 0.633840 0.259969
vt 0.941448 0.061228
vt 0.946417 0.147696
vt 0.905202 0.139727
vt 0.905248 0.829098
vt 0.870217 0.967721
vt 0.870217 0.815367
vt 0.257239 0.183609
vt 0.285717 0.146887
vt 0.285717 0.183609
vt 0.257239 0.146887
vt 0.162987 0.085582
vt 0.279766 0.073444
vt 0.156353 0.516936
vt 0.203337 0.443492
vt 0.205539 0.516936
vt 0.108978 0.516936
vt 0.121970 0.443492
vt 0.124770 0.516936
vt 0.156353 0.553657
vt 0.205539 0.553657
vt 0.108978 0.553657
vt 0.124770 0.553657
vt 0.905202 0.299698
vt 0.940233 0.438848
vt 0.905202 0.438766
vt 0.068196 0.939452
vt 0.035196 0.944820
vt 0.037278 0.939452
vt 0.590662 0.293774
vt 0.464062 0.277804
vt 0.464062 0.220331
vt 0.606632 0.914195
vt 0.648135 0.777835
vt 0.648135 0.914195
vt 0.622791 0.483517
vt 0.590662 0.626088
vt 0.287958 0.755560
vt 0.343959 0.810224
vt 0.324663 0.798351
vt 0.166342 0.374392
vt 0.203337 0.370048
vt 0.106178 0.443492
vt 0.121053 0.370205
vt 0.621429 0.916429
vt 0.590662 0.997066
vt 0.590662 0.916429
vt 0.284208 0.979684
vt 0.314975 0.899022
vt 0.314975 0.979684
vt 0.368951 0.748690
vt 0.377685 0.820550
vt 0.366034 0.819396
vt 0.722846 0.333413
vt 0.681307 0.317443
vt 0.729078 0.259969
vt 0.590662 0.367218
vt 0.472130 0.293774
vt 0.835187 0.003048
vt 0.815352 0.001031
vt 0.827014 0.000000
vt 0.205539 0.440930
vt 0.231879 0.391251
vt 0.228878 0.442787
vt 0.730499 0.075579
vt 0.750376 0.122166
vt 0.729078 0.138688
vt 0.262652 0.367504
vt 0.247678 0.391394
vt 0.246853 0.367361
vt 0.284208 0.675521
vt 0.328597 0.404645
vt 0.300834 0.705928
vt 0.506353 0.842658
vt 0.523536 0.881007
vt 0.511480 0.919726
vt 0.814191 0.122470
vt 0.804238 0.412522
vt 0.778882 0.128238
vt 0.251849 0.487692
vt 0.249833 0.826643
vt 0.236089 0.850071
vt 0.947424 0.493002
vt 0.968843 0.784818
vt 0.955642 0.814650
vt 0.775093 0.423359
vt 0.758284 0.474877
vt 0.205539 0.906821
vt 0.221258 0.876319
vt 0.217696 0.924856
vt 0.209283 0.850071
vt 0.220192 0.850071
vt 0.356251 0.700953
vt 0.357630 0.415788
vt 0.384380 0.394182
vt 0.329401 0.700152
vt 0.633840 0.390886
vt 0.640033 0.333413
vt 0.681307 0.349383
vt 0.681453 0.426676
vt 0.665822 0.446495
vt 0.665631 0.426676
vt 0.818928 0.080130
vt 0.057473 0.742788
vt 0.015970 0.879192
vt 0.015970 0.742788
vt 0.793184 0.009970
vt 0.675115 0.333413
vt 0.633840 0.317443
vt 0.665485 0.259969
vt 0.768966 0.028534
vt 0.228615 0.487482
vt 0.905202 0.000000
vt 0.943665 0.018965
vt 0.312075 0.831490
vt 0.343842 0.882495
vt 0.294801 0.899022
vt 0.198222 0.789496
vt 0.162356 0.836232
vt 0.157960 0.748519
vt 0.286198 0.063775
vt 0.171112 0.073444
vt 0.478977 0.825795
vt 0.474892 0.902399
vt 0.467003 0.826769
vt 0.035196 0.903316
vt 0.037278 0.908684
vt 0.070278 0.903316
vt 0.068196 0.908684
vt 0.179887 0.904694
vt 0.146887 0.910062
vt 0.148969 0.904694
vt 0.146887 0.868558
vt 0.148969 0.873926
vt 0.181968 0.868558
vt 0.179887 0.873926
vt 0.181968 0.910062
vt 0.070278 0.944820
vt 0.940233 0.445414
vt 0.971000 0.476332
vt 0.940233 0.476332
vt 0.146887 0.926032
vt 0.177655 0.956950
vt 0.146887 0.956950
vt 0.073444 0.967945
vt 0.104317 0.887418
vt 0.104317 0.968017
vt 0.652197 0.916429
vt 0.621429 0.997066
vt 0.621429 0.916429
vt 0.104317 0.967945
vt 0.135191 0.887418
vt 0.135191 0.968017
vt 0.314975 0.979684
vt 0.345743 0.899022
vt 0.345743 0.979684
vt 0.802522 0.878642
vt 0.833395 0.797971
vt 0.833395 0.878570
vt 0.940233 0.364743
vt 0.971106 0.284073
vt 0.971106 0.364671
vt 0.442622 0.367218
vt 0.450868 0.367218
vt 0.461111 0.293774
vt 0.160546 0.073444
vt 0.159022 0.057473
vt 0.633956 0.406857
vt 0.687500 0.406857
vt 0.681423 0.406857
vt 0.675115 0.406857
vt 0.633840 0.349383
vt 0.687540 0.333413
vt 0.000000 0.879275
vt 0.015970 0.887346
vt 0.298194 0.351248
vt 0.306439 0.351248
vt 0.306262 0.367218
vt 0.298194 0.309744
vt 0.306262 0.293774
vt 0.000000 0.015970
vt 0.008071 -0.000000
vt 0.008071 0.073444
vt 0.000000 0.057473
vt 0.057473 0.887346
vt 0.057473 0.879192
vt 0.073444 0.879275
vt 0.606632 0.769590
vt 0.606632 0.777835
vt 0.590662 0.777658
vt 0.664105 0.777658
vt 0.648135 0.769590
vt 0.035312 0.960790
vt 0.070393 0.887346
vt 0.035312 0.887346
vt 0.147002 0.926032
vt 0.182083 0.852588
vt 0.147002 0.852588
vt 0.664105 0.916429
vt 0.590662 0.914019
vt 0.146186 0.000000
vt 0.000000 0.742872
vt 0.911386 0.284073
vt 0.911386 0.147778
vt 0.275555 0.446501
vt 0.273223 0.508006
vt 0.252216 0.444644
vt 0.634027 0.423571
vt 0.649999 0.446495
vt 0.634218 0.443391
vt 0.232167 0.876319
vt 0.242010 0.850071
vt 0.243076 0.876319
vt 0.231101 0.850071
vt 0.244588 0.913622
vt 0.230090 0.924856
vt 0.924228 0.494346
vt 0.929440 0.798062
vt 0.902015 0.482853
vt 0.943263 0.815367
vt 0.210304 0.812027
vt 0.205539 0.519573
vt 0.223689 0.849958
vt 0.495453 0.843221
vt 0.484553 0.897388
vt 0.484553 0.843784
vt 0.499096 0.920366
vt 0.231054 0.367218
vt 0.215730 0.390837
vt 0.214927 0.374682
vt 0.263477 0.391538
vt 0.153553 0.443492
vt 0.144275 0.370205
vt 0.137762 0.443492
vt 0.140561 0.553657
vt 0.140561 0.516936
vt 0.205539 0.940656
vt 0.235918 0.956526
vt 0.205539 0.956456
vt 0.205539 0.924856
vt 0.235918 0.940727
vt 0.500333 0.994465
vt 0.516114 0.921569
vt 0.516114 0.995066
vt 0.484553 0.993863
vt 0.500333 0.920968
vt 0.935581 0.454648
vt 0.905202 0.438919
vt 0.935581 0.438848
vt 0.720958 0.563136
vt 0.694850 0.633075
vt 0.694850 0.547574
vt 0.935581 0.470448
vt 0.905202 0.454719
vt 0.720964 0.532003
vt 0.694850 0.462066
vt 0.720964 0.446495
vt 0.292401 0.000000
vt 0.619295 0.446495
vt 0.596023 0.547040
vt 0.631177 0.458791
vt 0.631595 0.487238
vt 0.683598 0.541362
vt 0.573982 0.877280
vt 0.562520 0.877280
vt 0.284208 0.894872
vt 0.703753 0.760046
vt 0.694850 0.749862
vt 0.703753 0.749700
vt 0.153308 0.848752
vt 0.152024 0.834803
vt 0.157791 0.838100
vt 0.577492 0.851950
vt 0.573982 0.847570
vt 0.157982 0.838359
vt 0.185085 0.850544
vt 0.062677 0.449027
vt 0.291136 0.073444
vt 0.182577 0.845576
vt 0.190163 0.852588
vt 0.574417 0.842123
vt 0.146887 0.753334
vt 0.000000 0.443849
vt 0.060424 0.435115
vt 0.354216 0.826975
vt 0.354216 0.885690
vt 0.059091 0.381588
vt 0.099790 0.367218
vt 0.148836 0.740097
vt 0.649663 0.259969
vt 0.665485 0.223248
vt 0.649663 0.223248
vt 0.681307 0.223248
vt 0.681307 0.259969
vt 0.162712 0.146887
vt 0.610989 0.259969
vt 0.633840 0.223248
vt 0.729078 0.223248
vt 0.633520 0.629222
vt 0.940233 0.284073
vt 0.384380 0.825795
vt 0.517254 0.842095
vt 0.968843 0.485546
vt 0.210349 0.876319
vt 0.344034 0.825795
vt 0.478977 0.908822
vt 0.720958 0.648637
vt 0.146887 0.845640
vt 0.577410 0.884412
vt 0.087748 0.516936
vt 0.003522 0.453644
vt 0.562520 0.847564
vt 0.633978 0.412380
vt 0.592795 0.333413
vt 0.952601 0.139617
vt 0.905248 0.967803
vt 0.298194 0.078979
vt 0.621429 0.997066
vt 0.284208 0.899022
vt 0.729078 0.317443
vt 0.314128 0.367218
vt 0.835187 0.446284
vt 0.681307 0.390886
vt 0.681644 0.446495
vt 0.294025 0.012619
vt 0.971000 0.445414
vt 0.177655 0.926032
vt 0.073444 0.887346
vt 0.652197 0.997066
vt 0.104317 0.887346
vt 0.314975 0.899022
vt 0.802522 0.798043
vt 0.940233 0.284145
vt 0.627647 0.406857
vt 0.070393 0.960790
vt 0.182083 0.926032
vt 0.073444 0.740097
vt 0.946417 0.283992
vt 0.235918 0.924927
vt 0.484553 0.920366
vt 0.905202 0.470518
vt 0.694850 0.547574
vt 0.590662 0.497890
vt 0.694850 0.528666
vt 0.185078 0.850545
vt 0.064473 0.369812
vt 0.162712 0.183609
vt 0.610989 0.223248
s 0
f 161/1/1 168/2/1 149/3/1
f 67/4/2 95/5/2 105/6/2
f 56/7/3 93/8/3 59/9/3
f 58/10/4 97/11/4 96/12/4
f 69/13/5 75/14/5 130/15/5
f 1/16/3 170/17/3 169/18/3
f 78/19/6 66/20/6 6/21/6
f 43/22/7 73/23/7 57/24/7
f 78/25/8 98/26/8 63/27/8
f 176/28/9 8/29/9 173/30/9
f 41/31/10 66/32/10 159/33/10
f 9/34/11 42/35/11 1/36/11
f 8/37/12 115/38/12 113/39/12
f 172/40/13 1/36/13 169/41/13
f 173/42/14 113/39/14 180/43/14
f 81/44/8 92/45/8 102/46/8
f 13/47/15 87/48/15 12/49/15
f 42/50/3 61/51/3 2/52/3
f 68/53/3 107/54/3 77/55/3
f 142/56/2 67/4/2 71/57/2
f 46/58/16 29/59/16 22/60/16
f 42/35/17 5/61/17 40/62/17
f 10/63/18 109/64/18 115/38/18
f 17/65/3 47/66/3 12/67/3
f 13/68/4 49/69/4 14/70/4
f 44/71/19 70/72/19 28/73/19
f 60/74/20 84/75/20 2/76/20
f 40/77/3 56/7/3 62/78/3
f 74/79/3 35/80/3 75/81/3
f 46/82/21 119/83/21 133/84/21
f 45/85/22 33/86/22 21/87/22
f 34/88/23 120/89/23 131/90/23
f 20/91/24 36/92/24 30/93/24
f 127/94/25 26/95/25 123/96/25
f 5/97/26 38/98/26 32/99/26
f 118/100/27 27/101/27 124/102/27
f 109/103/28 24/104/28 121/105/28
f 21/87/29 39/106/29 27/107/29
f 32/99/30 39/106/30 33/86/30
f 24/108/31 125/109/31 121/110/31
f 125/109/32 36/111/32 127/112/32
f 4/113/33 37/114/33 24/115/33
f 31/116/34 36/92/34 37/114/34
f 68/117/15 80/118/15 82/119/15
f 35/120/35 131/121/35 129/122/35
f 43/123/36 5/97/36 32/99/36
f 32/99/3 45/85/3 43/123/3
f 82/124/4 86/125/4 72/126/4
f 44/71/37 29/59/37 46/58/37
f 31/116/4 46/58/4 30/93/4
f 4/113/38 44/71/38 31/116/38
f 43/123/39 34/127/39 35/80/39
f 83/128/15 79/129/15 112/130/15
f 34/127/40 45/85/40 23/131/40
f 117/132/41 46/82/41 133/84/41
f 30/93/42 46/58/42 20/91/42
f 40/133/43 5/134/43 43/22/43
f 152/135/44 157/136/44 141/137/44
f 154/138/45 164/139/45 146/140/45
f 157/141/4 65/142/4 58/10/4
f 161/143/46 158/144/46 166/145/46
f 12/49/15 100/146/15 17/147/15
f 17/147/15 91/148/15 14/149/15
f 18/150/15 94/151/15 15/152/15
f 15/152/15 99/153/15 16/154/15
f 16/154/15 108/155/15 19/156/15
f 19/156/15 103/157/15 18/150/15
f 14/149/15 88/158/15 13/47/15
f 50/159/15 54/160/15 53/161/15
f 47/162/15 49/163/15 48/164/15
f 15/165/8 53/166/8 18/167/8
f 16/168/3 50/169/3 15/170/3
f 12/171/8 48/172/8 13/173/8
f 18/174/4 54/175/4 19/176/4
f 19/177/2 51/178/2 16/179/2
f 14/180/2 52/181/2 17/182/2
f 55/183/47 56/7/47 57/184/47
f 60/185/48 62/78/48 59/9/48
f 63/186/49 64/187/49 65/142/49
f 68/117/50 69/13/50 71/188/50
f 73/189/2 74/190/2 76/191/2
f 78/19/51 80/118/51 77/192/51
f 81/193/52 83/128/52 84/75/52
f 85/194/50 86/125/50 87/195/50
f 88/196/53 89/197/53 90/198/53
f 91/199/54 92/200/54 93/8/54
f 94/201/50 95/202/50 96/12/50
f 97/11/55 98/203/55 99/204/55
f 100/205/55 101/206/55 102/207/55
f 103/208/53 104/209/53 105/210/53
f 106/211/54 107/54/54 108/212/54
f 88/158/56 85/213/56 87/48/56
f 89/197/57 91/199/57 93/8/57
f 97/11/58 94/201/58 96/12/58
f 92/214/59 100/146/59 102/215/59
f 103/157/56 95/216/56 94/151/56
f 106/217/59 99/153/59 98/218/59
f 101/206/58 87/195/58 86/125/58
f 108/212/57 104/209/57 103/208/57
f 59/9/60 92/200/60 60/185/60
f 82/124/61 102/207/61 101/206/61
f 55/183/62 89/197/62 56/7/62
f 77/55/60 106/211/60 78/219/60
f 64/187/61 98/203/61 97/11/61
f 105/210/62 68/53/62 67/220/62
f 96/12/63 144/221/63 58/10/63
f 86/125/64 73/222/64 72/126/64
f 73/23/2 90/223/2 55/224/2
f 118/100/65 45/225/65 21/226/65
f 117/132/66 134/227/66 118/100/66
f 28/228/67 132/229/67 29/230/67
f 130/15/35 131/121/35 132/229/35
f 126/231/32 39/232/32 38/233/32
f 126/231/32 127/112/32 128/234/32
f 25/235/68 126/231/68 38/233/68
f 122/236/69 125/109/69 126/231/69
f 110/237/70 25/238/70 5/239/70
f 109/103/71 122/240/71 110/237/71
f 117/132/72 26/241/72 20/242/72
f 118/100/73 123/243/73 117/132/73
f 128/244/74 27/245/74 39/246/74
f 127/94/75 124/247/75 128/244/75
f 132/248/76 22/249/76 29/250/76
f 132/248/23 120/89/23 119/83/23
f 134/227/77 23/251/77 45/225/77
f 133/84/78 120/89/78 134/227/78
f 11/252/79 110/253/79 5/61/79
f 116/254/18 109/64/18 110/253/18
f 179/255/14 9/34/14 172/40/14
f 180/43/14 114/256/14 179/255/14
f 114/257/2 136/258/2 9/259/2
f 113/260/2 135/261/2 114/257/2
f 135/262/12 138/263/12 136/264/12
f 139/265/12 137/266/12 135/262/12
f 116/267/8 140/268/8 115/269/8
f 113/270/3 140/271/3 139/272/3
f 11/273/8 137/274/8 116/267/8
f 9/275/4 138/276/4 11/277/4
f 142/278/63 58/10/63 144/221/63
f 145/279/80 147/56/80 44/280/80
f 65/142/81 66/32/81 63/186/81
f 147/56/82 156/281/82 148/282/82
f 143/282/83 156/281/83 152/283/83
f 149/3/84 151/284/84 150/285/84
f 141/137/85 148/286/85 152/135/85
f 141/287/86 147/288/86 148/289/86
f 151/290/87 163/291/87 165/292/87
f 167/293/88 151/284/88 153/294/88
f 150/295/89 164/139/89 162/296/89
f 8/37/90 155/297/90 10/63/90
f 157/141/4 158/298/4 159/33/4
f 160/299/91 161/300/91 162/296/91
f 163/291/92 164/139/92 165/292/92
f 166/301/93 167/293/93 168/2/93
f 156/302/94 164/139/94 163/291/94
f 155/297/95 160/303/95 154/304/95
f 157/136/96 166/305/96 158/306/96
f 155/297/97 146/307/97 4/308/97
f 146/140/98 156/302/98 145/309/98
f 111/310/15 177/311/15 112/130/15
f 6/21/15 178/312/15 111/310/15
f 112/130/15 174/313/15 7/314/15
f 176/28/4 3/315/4 41/31/4
f 3/316/99 175/317/99 6/21/99
f 7/314/20 170/318/20 2/76/20
f 329/3/100 348/2/100 341/1/100
f 247/4/8 275/5/8 324/319/8
f 273/8/3 236/7/3 239/9/3
f 238/10/4 277/11/4 244/187/4
f 309/122/101 255/14/101 249/13/101
f 170/17/3 181/16/3 169/18/3
f 186/21/102 246/20/102 258/19/102
f 237/24/103 253/23/103 223/22/103
f 278/26/2 258/25/2 243/27/2
f 188/29/9 176/28/9 173/30/9
f 339/33/104 246/32/104 221/31/104
f 222/35/105 189/34/105 181/36/105
f 295/38/106 188/37/106 293/39/106
f 181/36/13 172/40/13 169/41/13
f 293/39/14 173/42/14 180/43/14
f 261/44/2 272/45/2 240/320/2
f 267/48/15 193/47/15 192/49/15
f 182/52/3 242/78/3 222/50/3
f 287/54/3 248/53/3 257/55/3
f 251/57/8 324/319/8 322/56/8
f 226/58/107 202/60/107 209/59/107
f 222/35/108 185/61/108 191/252/108
f 289/64/109 190/63/109 295/38/109
f 227/66/3 197/65/3 192/67/3
f 229/69/4 193/68/4 194/70/4
f 224/71/110 250/72/110 251/321/110
f 182/76/20 264/75/20 240/74/20
f 242/78/3 236/7/3 220/77/3
f 215/80/3 254/79/3 255/81/3
f 299/83/111 226/82/111 313/84/111
f 225/85/112 201/87/112 213/86/112
f 300/89/113 214/88/113 311/90/113
f 216/92/114 200/91/114 210/93/114
f 307/94/115 206/95/115 216/322/115
f 218/98/116 185/97/116 212/99/116
f 298/100/117 207/101/117 201/226/117
f 289/103/118 204/104/118 184/323/118
f 201/87/119 219/106/119 213/86/119
f 219/106/30 212/99/30 213/86/30
f 305/109/120 204/108/120 301/110/120
f 305/109/121 216/111/121 217/324/121
f 184/113/122 217/114/122 211/116/122
f 211/116/123 216/92/123 210/93/123
f 260/118/15 248/117/15 256/191/15
f 311/121/124 215/120/124 309/122/124
f 223/123/125 212/99/125 185/97/125
f 225/85/3 212/99/3 223/123/3
f 266/125/4 262/124/4 252/126/4
f 224/71/126 209/59/126 208/73/126
f 211/116/4 226/58/4 224/71/4
f 184/113/127 211/116/127 224/71/127
f 214/127/128 223/123/128 215/80/128
f 291/310/15 259/129/15 263/128/15
f 214/127/129 203/131/129 225/85/129
f 297/132/130 226/82/130 200/242/130
f 210/93/131 200/91/131 226/58/131
f 220/133/132 223/22/132 185/134/132
f 332/135/133 337/136/133 347/325/133
f 344/139/134 334/138/134 326/140/134
f 238/10/4 245/142/4 337/141/4
f 341/143/135 338/144/135 335/326/135
f 280/146/15 192/49/15 197/147/15
f 271/148/15 197/147/15 194/149/15
f 274/151/15 198/150/15 195/152/15
f 279/153/15 195/152/15 196/154/15
f 288/155/15 196/154/15 199/156/15
f 283/157/15 199/156/15 198/150/15
f 268/158/15 194/149/15 193/47/15
f 234/160/15 230/159/15 233/161/15
f 229/163/15 227/162/15 228/164/15
f 233/166/2 195/165/2 198/167/2
f 230/169/3 196/168/3 195/170/3
f 228/172/2 192/171/2 193/173/2
f 234/175/4 198/174/4 199/176/4
f 231/178/8 199/177/8 196/179/8
f 232/181/8 194/180/8 197/182/8
f 235/183/136 237/184/136 236/7/136
f 242/78/137 240/185/137 239/9/137
f 243/186/138 245/142/138 244/187/138
f 251/188/55 249/13/55 248/117/55
f 256/191/8 254/190/8 253/189/8
f 260/118/139 258/19/139 257/192/139
f 261/193/52 263/128/52 262/119/52
f 265/194/55 267/195/55 266/125/55
f 268/196/54 270/198/54 269/197/54
f 271/199/53 273/8/53 272/200/53
f 274/201/55 276/12/55 275/202/55
f 277/11/50 279/204/50 278/203/50
f 280/205/50 282/207/50 281/206/50
f 283/208/54 285/210/54 284/209/54
f 286/211/53 288/212/53 287/54/53
f 265/213/59 268/158/59 267/48/59
f 271/199/57 269/197/57 273/8/57
f 274/201/58 277/11/58 276/12/58
f 280/146/56 272/214/56 282/215/56
f 275/216/59 283/157/59 274/151/59
f 279/153/56 286/217/56 278/218/56
f 267/195/58 281/206/58 266/125/58
f 284/209/57 288/212/57 283/208/57
f 239/9/62 272/200/62 273/8/62
f 282/207/64 262/124/64 281/206/64
f 235/183/60 269/197/60 270/198/60
f 257/55/62 286/211/62 287/54/62
f 278/203/64 244/187/64 277/11/64
f 248/53/60 285/210/60 247/220/60
f 324/221/140 276/12/140 238/10/140
f 253/222/61 266/125/61 252/126/61
f 270/223/8 253/23/8 235/224/8
f 225/225/141 298/100/141 201/226/141
f 314/227/142 297/132/142 298/100/142
f 208/228/143 312/229/143 310/15/143
f 310/15/124 311/121/124 309/122/124
f 219/232/121 306/231/121 218/233/121
f 306/231/121 307/112/121 305/109/121
f 205/235/144 306/231/144 302/236/144
f 306/231/145 301/110/145 302/236/145
f 205/238/146 290/237/146 185/239/146
f 302/240/147 289/103/147 290/237/147
f 206/241/148 297/132/148 200/242/148
f 303/243/149 298/100/149 297/132/149
f 207/245/150 308/244/150 219/246/150
f 308/244/151 303/96/151 307/94/151
f 202/249/152 312/248/152 209/250/152
f 299/83/113 311/90/113 312/248/113
f 203/251/153 314/227/153 225/225/153
f 300/89/154 313/84/154 314/227/154
f 191/252/109 290/253/109 296/254/109
f 296/254/109 289/64/109 295/38/109
f 189/34/14 179/255/14 172/40/14
f 294/256/14 180/43/14 179/255/14
f 316/258/8 294/257/8 189/259/8
f 315/261/8 293/260/8 294/257/8
f 318/263/106 315/262/106 316/264/106
f 317/266/106 319/265/106 315/262/106
f 320/268/2 296/267/2 295/269/2
f 293/270/3 320/271/3 295/327/3
f 317/274/2 191/273/2 296/267/2
f 318/276/4 189/275/4 191/277/4
f 238/10/140 322/278/140 324/221/140
f 224/280/155 322/56/155 325/279/155
f 245/142/156 243/186/156 246/32/156
f 327/56/157 336/281/157 325/279/157
f 332/283/158 336/281/158 328/282/158
f 331/284/84 329/3/84 330/285/84
f 321/137/159 332/135/159 328/286/159
f 321/287/160 328/289/160 327/288/160
f 345/292/161 332/328/161 331/290/161
f 333/294/162 332/329/162 347/293/162
f 342/296/89 344/139/89 330/295/89
f 188/37/163 335/297/163 221/330/163
f 337/141/4 339/33/4 338/298/4
f 340/299/164 342/296/164 341/300/164
f 343/291/165 345/292/165 344/139/165
f 346/301/166 348/2/166 347/293/166
f 344/139/167 336/302/167 343/291/167
f 335/297/168 340/303/168 341/331/168
f 337/136/169 346/305/169 347/325/169
f 184/308/170 326/307/170 335/297/170
f 326/140/171 325/309/171 336/302/171
f 177/311/15 291/310/15 292/130/15
f 178/312/15 186/21/15 291/310/15
f 174/313/15 292/130/15 187/314/15
f 183/315/4 176/28/4 221/31/4
f 175/317/99 183/316/99 186/21/99
f 170/318/20 187/314/20 182/76/20
f 149/3/172 162/332/172 161/1/172
f 161/1/173 166/301/173 168/2/173
f 168/2/174 153/294/174 149/3/174
f 67/4/2 144/319/2 95/5/2
f 56/7/3 89/197/3 93/8/3
f 58/10/4 64/187/4 97/11/4
f 28/228/175 70/333/175 69/13/175
f 69/13/176 76/191/176 75/14/176
f 75/14/177 35/120/177 129/122/177
f 130/15/178 28/228/178 69/13/178
f 75/14/177 129/122/177 130/15/177
f 1/16/3 2/52/3 170/17/3
f 6/21/179 79/129/179 78/19/179
f 78/19/180 63/334/180 66/20/180
f 66/20/181 3/316/181 6/21/181
f 57/24/182 40/133/182 43/22/182
f 43/22/183 74/335/183 73/23/183
f 73/23/2 55/224/2 57/24/2
f 78/25/8 106/336/8 98/26/8
f 176/28/9 41/31/9 8/29/9
f 158/298/10 155/337/10 41/31/10
f 41/31/10 3/315/10 66/32/10
f 66/32/10 65/142/10 159/33/10
f 159/33/10 158/298/10 41/31/10
f 9/34/184 11/252/184 42/35/184
f 8/37/12 10/63/12 115/38/12
f 172/40/13 9/34/13 1/36/13
f 173/42/14 8/37/14 113/39/14
f 81/44/8 60/320/8 92/45/8
f 13/47/15 88/158/15 87/48/15
f 2/52/3 1/16/3 42/50/3
f 42/50/3 62/78/3 61/51/3
f 68/53/3 104/209/3 107/54/3
f 71/57/185 44/280/185 142/56/185
f 142/56/2 144/319/2 67/4/2
f 42/35/186 11/252/186 5/61/186
f 10/63/187 4/308/187 109/64/187
f 17/65/3 52/338/3 47/66/3
f 13/68/4 48/339/4 49/69/4
f 44/71/188 71/321/188 70/72/188
f 2/76/20 61/340/20 60/74/20
f 60/74/20 81/193/20 84/75/20
f 84/75/20 7/314/20 2/76/20
f 62/78/3 42/50/3 40/77/3
f 40/77/3 57/184/3 56/7/3
f 56/7/3 59/9/3 62/78/3
f 74/79/189 43/123/189 35/80/189
f 46/82/190 22/249/190 119/83/190
f 34/88/23 23/251/23 120/89/23
f 20/91/191 26/341/191 36/92/191
f 127/94/192 36/322/192 26/95/192
f 5/97/193 25/342/193 38/98/193
f 118/100/194 21/226/194 27/101/194
f 109/103/195 4/323/195 24/104/195
f 21/87/196 33/86/196 39/106/196
f 32/99/197 38/98/197 39/106/197
f 24/108/198 37/324/198 125/109/198
f 125/109/32 37/324/32 36/111/32
f 4/113/199 31/116/199 37/114/199
f 31/116/123 30/93/123 36/92/123
f 82/119/15 72/343/15 76/191/15
f 76/191/15 69/13/15 68/117/15
f 68/117/15 77/192/15 80/118/15
f 80/118/15 83/128/15 82/119/15
f 82/119/15 76/191/15 68/117/15
f 35/120/35 34/344/35 131/121/35
f 32/99/3 33/86/3 45/85/3
f 82/124/4 101/206/4 86/125/4
f 44/71/200 28/73/200 29/59/200
f 31/116/4 44/71/4 46/58/4
f 43/123/201 45/85/201 34/127/201
f 7/314/15 84/75/15 83/128/15
f 83/128/15 80/118/15 79/129/15
f 79/129/15 6/21/15 111/310/15
f 112/130/15 7/314/15 83/128/15
f 79/129/15 111/310/15 112/130/15
f 117/132/202 20/242/202 46/82/202
f 152/135/203 167/325/203 157/136/203
f 154/138/204 160/299/204 164/139/204
f 58/10/4 141/345/4 157/141/4
f 157/141/4 159/33/4 65/142/4
f 65/142/4 64/187/4 58/10/4
f 161/143/205 155/326/205 158/144/205
f 12/49/15 87/48/15 100/146/15
f 17/147/15 100/146/15 91/148/15
f 18/150/15 103/157/15 94/151/15
f 15/152/15 94/151/15 99/153/15
f 16/154/15 99/153/15 108/155/15
f 19/156/15 108/155/15 103/157/15
f 14/149/15 91/148/15 88/158/15
f 50/159/15 51/346/15 54/160/15
f 47/162/15 52/347/15 49/163/15
f 15/165/8 50/348/8 53/166/8
f 16/168/3 51/349/3 50/169/3
f 12/171/8 47/350/8 48/172/8
f 18/174/4 53/351/4 54/175/4
f 19/177/2 54/352/2 51/178/2
f 14/180/2 49/353/2 52/181/2
f 60/185/206 61/51/206 62/78/206
f 71/188/53 67/354/53 68/117/53
f 69/13/207 70/333/207 71/188/207
f 76/191/15 72/343/15 73/189/15
f 74/190/208 75/14/208 76/191/208
f 78/19/139 79/129/139 80/118/139
f 81/193/209 82/119/209 83/128/209
f 88/158/56 90/355/56 85/213/56
f 89/197/57 88/196/57 91/199/57
f 97/11/58 99/204/58 94/201/58
f 92/214/59 91/148/59 100/146/59
f 103/157/56 105/356/56 95/216/56
f 106/217/59 108/155/59 99/153/59
f 101/206/58 100/205/58 87/195/58
f 108/212/57 107/54/57 104/209/57
f 59/9/60 93/8/60 92/200/60
f 82/124/61 81/357/61 102/207/61
f 55/183/62 90/198/62 89/197/62
f 77/55/60 107/54/60 106/211/60
f 64/187/61 63/186/61 98/203/61
f 105/210/62 104/209/62 68/53/62
f 96/12/210 95/202/210 144/221/210
f 86/125/64 85/194/64 73/222/64
f 73/23/2 85/358/2 90/223/2
f 118/100/211 134/227/211 45/225/211
f 117/132/41 133/84/41 134/227/41
f 28/228/67 130/15/67 132/229/67
f 130/15/35 129/122/35 131/121/35
f 126/231/32 128/234/32 39/232/32
f 126/231/32 125/109/32 127/112/32
f 25/235/212 122/236/212 126/231/212
f 122/236/69 121/110/69 125/109/69
f 110/237/213 122/240/213 25/238/213
f 109/103/71 121/105/71 122/240/71
f 117/132/214 123/243/214 26/241/214
f 118/100/73 124/102/73 123/243/73
f 128/244/215 124/247/215 27/245/215
f 127/94/75 123/96/75 124/247/75
f 132/248/216 119/83/216 22/249/216
f 132/248/23 131/90/23 120/89/23
f 134/227/217 120/89/217 23/251/217
f 133/84/218 119/83/218 120/89/218
f 11/252/18 116/254/18 110/253/18
f 116/254/18 115/38/18 109/64/18
f 179/255/14 114/256/14 9/34/14
f 180/43/14 113/39/14 114/256/14
f 114/257/2 135/261/2 136/258/2
f 113/260/2 139/359/2 135/261/2
f 135/262/12 137/266/12 138/263/12
f 139/265/12 140/360/12 137/266/12
f 116/267/8 137/274/8 140/268/8
f 113/270/3 115/327/3 140/271/3
f 11/273/8 138/361/8 137/274/8
f 9/275/4 136/362/4 138/276/4
f 142/278/219 141/345/219 58/10/219
f 44/280/220 4/363/220 145/279/220
f 147/56/4 142/56/4 44/280/4
f 147/56/221 145/279/221 156/281/221
f 156/281/222 163/364/222 152/283/222
f 143/282/4 148/282/4 156/281/4
f 149/3/84 153/294/84 151/284/84
f 165/292/223 150/295/223 151/290/223
f 151/290/224 152/328/224 163/291/224
f 153/294/225 168/2/225 167/293/225
f 167/293/226 152/329/226 151/284/226
f 162/296/227 149/365/227 150/295/227
f 150/295/228 165/292/228 164/139/228
f 164/139/229 160/299/229 162/296/229
f 8/37/230 41/330/230 155/297/230
f 156/302/231 146/140/231 164/139/231
f 155/297/232 161/331/232 160/303/232
f 157/136/233 167/325/233 166/305/233
f 4/308/234 10/63/234 155/297/234
f 155/297/235 154/304/235 146/307/235
f 146/307/236 145/366/236 4/308/236
f 111/310/15 178/312/15 177/311/15
f 6/21/15 175/317/15 178/312/15
f 112/130/15 177/311/15 174/313/15
f 176/28/4 171/367/4 3/315/4
f 3/316/99 171/368/99 175/317/99
f 7/314/20 174/313/20 170/318/20
f 341/1/237 342/332/237 329/3/237
f 329/3/238 333/294/238 348/2/238
f 348/2/239 346/301/239 341/1/239
f 247/4/8 285/6/8 275/5/8
f 273/8/3 269/197/3 236/7/3
f 238/10/4 276/12/4 277/11/4
f 249/13/240 250/333/240 208/228/240
f 249/13/241 208/228/241 310/15/241
f 255/14/242 256/191/242 249/13/242
f 309/122/243 215/120/243 255/14/243
f 249/13/244 310/15/244 309/122/244
f 170/17/3 182/52/3 181/16/3
f 258/19/179 259/129/179 186/21/179
f 186/21/245 183/316/245 246/20/245
f 246/20/246 243/334/246 258/19/246
f 223/22/247 220/133/247 237/24/247
f 237/24/8 235/224/8 253/23/8
f 253/23/248 254/335/248 223/22/248
f 278/26/2 286/336/2 258/25/2
f 188/29/9 221/31/9 176/28/9
f 221/31/104 335/337/104 338/298/104
f 339/33/104 245/142/104 246/32/104
f 221/31/104 338/298/104 339/33/104
f 246/32/104 183/315/104 221/31/104
f 222/35/249 191/252/249 189/34/249
f 295/38/106 190/63/106 188/37/106
f 181/36/13 189/34/13 172/40/13
f 293/39/14 188/37/14 173/42/14
f 261/44/2 282/46/2 272/45/2
f 267/48/15 268/158/15 193/47/15
f 222/50/3 181/16/3 182/52/3
f 182/52/3 241/51/3 242/78/3
f 287/54/3 284/209/3 248/53/3
f 322/56/250 224/280/250 251/57/250
f 251/57/8 247/4/8 324/319/8
f 222/35/17 220/62/17 185/61/17
f 289/64/251 184/308/251 190/63/251
f 227/66/3 232/338/3 197/65/3
f 229/69/4 228/339/4 193/68/4
f 224/71/252 208/73/252 250/72/252
f 240/74/20 241/340/20 182/76/20
f 182/76/20 187/314/20 264/75/20
f 264/75/20 261/193/20 240/74/20
f 220/77/3 222/50/3 242/78/3
f 242/78/3 239/9/3 236/7/3
f 236/7/3 237/184/3 220/77/3
f 215/80/253 223/123/253 254/79/253
f 299/83/254 202/249/254 226/82/254
f 300/89/113 203/251/113 214/88/113
f 216/92/255 206/341/255 200/91/255
f 307/94/256 303/96/256 206/95/256
f 218/98/257 205/342/257 185/97/257
f 298/100/258 304/102/258 207/101/258
f 289/103/259 301/105/259 204/104/259
f 201/87/260 207/107/260 219/106/260
f 219/106/261 218/98/261 212/99/261
f 305/109/262 217/324/262 204/108/262
f 305/109/121 307/112/121 216/111/121
f 184/113/263 204/115/263 217/114/263
f 211/116/264 217/114/264 216/92/264
f 256/191/15 252/343/15 262/119/15
f 262/119/15 263/128/15 260/118/15
f 260/118/15 257/192/15 248/117/15
f 248/117/15 249/13/15 256/191/15
f 256/191/15 262/119/15 260/118/15
f 311/121/124 214/344/124 215/120/124
f 225/85/3 213/86/3 212/99/3
f 266/125/4 281/206/4 262/124/4
f 224/71/265 226/58/265 209/59/265
f 211/116/4 210/93/4 226/58/4
f 214/127/266 225/85/266 223/123/266
f 263/128/15 264/75/15 187/314/15
f 263/128/15 187/314/15 292/130/15
f 259/129/15 260/118/15 263/128/15
f 291/310/15 186/21/15 259/129/15
f 263/128/15 292/130/15 291/310/15
f 297/132/267 313/84/267 226/82/267
f 332/135/268 321/137/268 337/136/268
f 344/139/269 340/299/269 334/138/269
f 337/141/4 321/345/4 238/10/4
f 238/10/4 244/187/4 245/142/4
f 245/142/4 339/33/4 337/141/4
f 341/143/270 346/145/270 338/144/270
f 280/146/15 267/48/15 192/49/15
f 271/148/15 280/146/15 197/147/15
f 274/151/15 283/157/15 198/150/15
f 279/153/15 274/151/15 195/152/15
f 288/155/15 279/153/15 196/154/15
f 283/157/15 288/155/15 199/156/15
f 268/158/15 271/148/15 194/149/15
f 234/160/15 231/346/15 230/159/15
f 229/163/15 232/347/15 227/162/15
f 233/166/2 230/348/2 195/165/2
f 230/169/3 231/349/3 196/168/3
f 228/172/2 227/350/2 192/171/2
f 234/175/4 233/351/4 198/174/4
f 231/178/8 234/352/8 199/177/8
f 232/181/8 229/353/8 194/180/8
f 242/78/271 241/51/271 240/185/271
f 248/117/54 247/354/54 251/188/54
f 251/188/272 250/333/272 249/13/272
f 253/189/15 252/343/15 256/191/15
f 256/191/273 255/14/273 254/190/273
f 260/118/51 259/129/51 258/19/51
f 261/193/209 264/75/209 263/128/209
f 265/213/59 270/355/59 268/158/59
f 271/199/57 268/196/57 269/197/57
f 274/201/58 279/204/58 277/11/58
f 280/146/56 271/148/56 272/214/56
f 275/216/59 285/356/59 283/157/59
f 279/153/56 288/155/56 286/217/56
f 267/195/58 280/205/58 281/206/58
f 284/209/57 287/54/57 288/212/57
f 239/9/62 240/185/62 272/200/62
f 282/207/64 261/357/64 262/124/64
f 235/183/60 236/7/60 269/197/60
f 257/55/62 258/219/62 286/211/62
f 278/203/64 243/186/64 244/187/64
f 248/53/60 284/209/60 285/210/60
f 324/221/274 275/202/274 276/12/274
f 253/222/61 265/194/61 266/125/61
f 270/223/8 265/358/8 253/23/8
f 225/225/275 314/227/275 298/100/275
f 314/227/267 313/84/267 297/132/267
f 208/228/143 209/230/143 312/229/143
f 310/15/124 312/229/124 311/121/124
f 219/232/121 308/234/121 306/231/121
f 306/231/121 308/234/121 307/112/121
f 205/235/276 218/233/276 306/231/276
f 306/231/145 305/109/145 301/110/145
f 205/238/277 302/240/277 290/237/277
f 302/240/147 301/105/147 289/103/147
f 206/241/278 303/243/278 297/132/278
f 303/243/149 304/102/149 298/100/149
f 207/245/279 304/247/279 308/244/279
f 308/244/151 304/247/151 303/96/151
f 202/249/280 299/83/280 312/248/280
f 299/83/113 300/89/113 311/90/113
f 203/251/281 300/89/281 314/227/281
f 300/89/282 299/83/282 313/84/282
f 191/252/283 185/61/283 290/253/283
f 296/254/109 290/253/109 289/64/109
f 189/34/14 294/256/14 179/255/14
f 294/256/14 293/39/14 180/43/14
f 316/258/8 315/261/8 294/257/8
f 315/261/8 319/359/8 293/260/8
f 318/263/106 317/266/106 315/262/106
f 317/266/106 320/360/106 319/265/106
f 320/268/2 317/274/2 296/267/2
f 293/270/3 319/272/3 320/271/3
f 317/274/2 318/361/2 191/273/2
f 318/276/4 316/362/4 189/275/4
f 238/10/284 321/345/284 322/278/284
f 325/279/285 184/363/285 224/280/285
f 322/56/4 327/56/4 325/279/4
f 327/56/286 328/282/286 336/281/286
f 332/283/287 343/364/287 336/281/287
f 328/282/4 323/282/4 332/283/4
f 331/284/84 333/294/84 329/3/84
f 331/290/288 330/295/288 345/292/288
f 345/292/289 343/291/289 332/328/289
f 347/293/162 348/2/162 333/294/162
f 333/294/290 331/284/290 332/329/290
f 330/295/227 329/365/227 342/296/227
f 342/296/291 340/299/291 344/139/291
f 344/139/292 345/292/292 330/295/292
f 188/37/293 190/63/293 335/297/293
f 344/139/294 326/140/294 336/302/294
f 335/297/295 334/304/295 340/303/295
f 337/136/296 338/306/296 346/305/296
f 335/297/297 190/63/297 184/308/297
f 184/308/298 325/366/298 326/307/298
f 326/307/299 334/304/299 335/297/299
f 177/311/15 178/312/15 291/310/15
f 178/312/15 175/317/15 186/21/15
f 174/313/15 177/311/15 292/130/15
f 183/315/4 171/367/4 176/28/4
f 175/317/99 171/368/99 183/316/99
f 170/318/20 174/313/20 187/314/20
