# Blender 4.4.3
# www.blender.org
o Sword
v -2.946654 0.926511 -0.288287 1.0000 1.0000 1.0000
v -3.243625 0.926511 -0.341127 1.0000 1.0000 1.0000
v -2.946654 0.926511 -0.074758 1.0000 1.0000 1.0000
v -3.243625 0.926511 -0.005932 1.0000 1.0000 1.0000
v -3.254461 0.931110 -0.355736 1.0000 1.0000 1.0000
v -3.295238 0.931110 -0.352325 1.0000 1.0000 1.0000
v -3.334449 0.931110 -0.342224 1.0000 1.0000 1.0000
v -3.370585 0.931110 -0.325821 1.0000 1.0000 1.0000
v -3.402259 0.931110 -0.303746 1.0000 1.0000 1.0000
v -3.428253 0.931110 -0.276848 1.0000 1.0000 1.0000
v -3.447568 0.931110 -0.246160 1.0000 1.0000 1.0000
v -3.459462 0.931110 -0.212861 1.0000 1.0000 1.0000
v -3.463479 0.931110 -0.178232 1.0000 1.0000 1.0000
v -3.459462 0.931110 -0.143603 1.0000 1.0000 1.0000
v -3.447568 0.931110 -0.110304 1.0000 1.0000 1.0000
v -3.428253 0.931110 -0.079616 1.0000 1.0000 1.0000
v -3.402259 0.931110 -0.052718 1.0000 1.0000 1.0000
v -3.370585 0.931110 -0.030643 1.0000 1.0000 1.0000
v -3.334449 0.931110 -0.014240 1.0000 1.0000 1.0000
v -3.295238 0.931110 -0.004139 1.0000 1.0000 1.0000
v -3.254461 0.931110 -0.000728 1.0000 1.0000 1.0000
v -3.213684 0.931110 -0.004139 1.0000 1.0000 1.0000
v -3.174474 0.931110 -0.014240 1.0000 1.0000 1.0000
v -3.138337 0.931110 -0.030643 1.0000 1.0000 1.0000
v -3.106663 0.931110 -0.052718 1.0000 1.0000 1.0000
v -3.080670 0.931110 -0.079616 1.0000 1.0000 1.0000
v -3.061354 0.931110 -0.110304 1.0000 1.0000 1.0000
v -3.049460 0.931110 -0.143603 1.0000 1.0000 1.0000
v -3.045444 0.931110 -0.178232 1.0000 1.0000 1.0000
v -3.049460 0.931110 -0.212862 1.0000 1.0000 1.0000
v -3.061354 0.931110 -0.246160 1.0000 1.0000 1.0000
v -3.080670 0.931110 -0.276848 1.0000 1.0000 1.0000
v -3.106664 0.931110 -0.303746 1.0000 1.0000 1.0000
v -3.138338 0.931110 -0.325821 1.0000 1.0000 1.0000
v -3.174474 0.931110 -0.342224 1.0000 1.0000 1.0000
v -3.213684 0.931110 -0.352325 1.0000 1.0000 1.0000
v -1.746653 0.930431 -0.293098 1.0000 1.0000 1.0000
v -1.746653 0.930431 -0.070295 1.0000 1.0000 1.0000
v -1.746653 0.930431 -0.293098 1.0000 1.0000 1.0000
v -1.746653 0.930431 -0.070295 1.0000 1.0000 1.0000
v -1.546653 0.930431 -0.780697 1.0000 1.0000 1.0000
v -1.546653 0.930431 0.417304 1.0000 1.0000 1.0000
v -1.546654 0.873593 -0.416739 1.0000 1.0000 1.0000
v -1.546654 0.873593 0.053346 1.0000 1.0000 1.0000
v 6.002355 0.873593 -0.416739 1.0000 1.0000 1.0000
v 6.002355 0.873593 0.053346 1.0000 1.0000 1.0000
v 6.732196 0.864801 -0.188316 1.0000 1.0000 1.0000
v -2.946654 0.820676 -0.288287 1.0000 1.0000 1.0000
v -3.243625 0.820676 -0.341127 1.0000 1.0000 1.0000
v -2.946654 0.820676 -0.074758 1.0000 1.0000 1.0000
v -3.243625 0.820676 -0.005932 1.0000 1.0000 1.0000
v -3.254461 0.817433 -0.355736 1.0000 1.0000 1.0000
v -3.295238 0.817433 -0.352325 1.0000 1.0000 1.0000
v -3.334449 0.817433 -0.342224 1.0000 1.0000 1.0000
v -3.370585 0.817433 -0.325821 1.0000 1.0000 1.0000
v -3.402259 0.817433 -0.303746 1.0000 1.0000 1.0000
v -3.428253 0.817433 -0.276848 1.0000 1.0000 1.0000
v -3.447568 0.817433 -0.246160 1.0000 1.0000 1.0000
v -3.459462 0.817433 -0.212861 1.0000 1.0000 1.0000
v -3.463479 0.817433 -0.178232 1.0000 1.0000 1.0000
v -3.459462 0.817433 -0.143603 1.0000 1.0000 1.0000
v -3.447568 0.817433 -0.110304 1.0000 1.0000 1.0000
v -3.428253 0.817433 -0.079616 1.0000 1.0000 1.0000
v -3.402259 0.817433 -0.052718 1.0000 1.0000 1.0000
v -3.370585 0.817433 -0.030643 1.0000 1.0000 1.0000
v -3.334449 0.817433 -0.014240 1.0000 1.0000 1.0000
v -3.295238 0.817433 -0.004139 1.0000 1.0000 1.0000
v -3.254461 0.817433 -0.000728 1.0000 1.0000 1.0000
v -3.213684 0.817433 -0.004139 1.0000 1.0000 1.0000
v -3.174474 0.817433 -0.014240 1.0000 1.0000 1.0000
v -3.138337 0.817433 -0.030643 1.0000 1.0000 1.0000
v -3.106663 0.817433 -0.052718 1.0000 1.0000 1.0000
v -3.080670 0.817433 -0.079616 1.0000 1.0000 1.0000
v -3.061354 0.817433 -0.110304 1.0000 1.0000 1.0000
v -3.049460 0.817433 -0.143603 1.0000 1.0000 1.0000
v -3.045444 0.817433 -0.178232 1.0000 1.0000 1.0000
v -3.049460 0.817433 -0.212862 1.0000 1.0000 1.0000
v -3.061354 0.817433 -0.246160 1.0000 1.0000 1.0000
v -3.080670 0.817433 -0.276848 1.0000 1.0000 1.0000
v -3.106664 0.817433 -0.303746 1.0000 1.0000 1.0000
v -3.138338 0.817433 -0.325821 1.0000 1.0000 1.0000
v -3.174474 0.817433 -0.342224 1.0000 1.0000 1.0000
v -3.213684 0.817433 -0.352325 1.0000 1.0000 1.0000
v -1.746653 0.816755 -0.293098 1.0000 1.0000 1.0000
v -1.746653 0.816755 -0.070295 1.0000 1.0000 1.0000
v -1.746653 0.816755 -0.293098 1.0000 1.0000 1.0000
v -1.746653 0.816755 -0.070295 1.0000 1.0000 1.0000
v -1.546653 0.816755 -0.780697 1.0000 1.0000 1.0000
v -1.546653 0.816755 0.417304 1.0000 1.0000 1.0000
v -1.546654 0.831949 -0.191626 1.0000 1.0000 1.0000
v -1.546654 0.915238 -0.191626 1.0000 1.0000 1.0000
vn -0.0000 -1.0000 -0.0000
vn -0.0000 1.0000 -0.0000
vn 1.0000 -0.0000 -0.0000
vn -0.0000 -0.9833 -0.1819
vn 0.0039 -0.9988 0.0483
vn -1.0000 -0.0000 -0.0000
vn -0.0000 0.9833 -0.1819
vn -0.7191 -0.0000 -0.6949
vn 0.0833 -0.0000 -0.9965
vn 0.4133 -0.0000 0.9106
vn -0.8463 -0.0000 -0.5327
vn 0.5718 -0.0000 0.8204
vn -0.9417 -0.0000 -0.3364
vn -0.0037 -0.0000 1.0000
vn 0.7191 -0.0000 0.6949
vn -0.9933 -0.0000 -0.1152
vn -0.0040 -0.0000 -1.0000
vn 0.8463 -0.0000 0.5327
vn -0.9933 -0.0000 0.1152
vn 0.9417 -0.0000 0.3364
vn -0.9417 -0.0000 0.3364
vn 0.9933 -0.0000 0.1152
vn -0.8463 -0.0000 0.5327
vn 0.2258 -0.0000 0.9742
vn 0.9933 -0.0000 -0.1152
vn -0.7191 -0.0000 0.6949
vn 0.1752 -0.0000 -0.9845
vn 0.9417 -0.0000 -0.3364
vn -0.5718 -0.0000 0.8204
vn -0.9252 -0.0000 0.3795
vn 0.8463 -0.0000 -0.5327
vn -0.4133 -0.0000 0.9106
vn -0.9252 -0.0000 -0.3795
vn -0.0834 -0.0000 -0.9965
vn 0.7191 -0.0000 -0.6949
vn -0.2495 -0.0000 0.9684
vn -0.2495 -0.0000 -0.9684
vn 0.5718 -0.0000 -0.8204
vn -0.0834 -0.0000 0.9965
vn -0.4133 -0.0000 -0.9106
vn 0.4133 -0.0000 -0.9106
vn 0.0834 -0.0000 0.9965
vn -0.5718 -0.0000 -0.8204
vn 0.2495 -0.0000 -0.9684
vn 0.2495 -0.0000 0.9684
vn -0.0000 0.9859 0.1676
vn -0.0033 -1.0000 -0.0000
vn 0.0040 -0.9987 -0.0512
vn -0.0000 -0.9859 0.1676
vn 0.0061 0.9998 0.0190
vn 0.0834 -0.0000 -0.9965
vn -0.0033 1.0000 -0.0000
vn 0.0061 0.9998 -0.0180
s 0
f 48//1 50//1 49//1
f 40//2 41//2 39//2
f 44//3 43//3 41//3
f 45//4 90//4 43//4
f 21//2 29//2 5//2
f 46//5 90//5 47//5
f 86//6 87//6 37//6
f 88//1 87//1 86//1
f 43//3 44//3 89//3
f 91//7 45//7 43//7
f 70//1 62//1 54//1
f 56//8 10//8 9//8
f 83//9 5//9 36//9
f 70//10 24//10 23//10
f 57//11 11//11 10//11
f 71//12 25//12 24//12
f 58//13 12//13 11//13
f 50//14 38//14 3//14
f 72//15 26//15 25//15
f 59//16 13//16 12//16
f 84//17 1//17 37//17
f 73//18 27//18 26//18
f 60//19 14//19 13//19
f 74//20 28//20 27//20
f 61//21 15//21 14//21
f 38//2 87//2 40//2
f 75//22 29//22 28//22
f 62//23 16//23 15//23
f 51//24 3//24 4//24
f 76//25 30//25 29//25
f 63//26 17//26 16//26
f 48//27 2//27 1//27
f 77//28 31//28 30//28
f 64//29 18//29 17//29
f 87//30 42//30 40//30
f 78//31 32//31 31//31
f 65//32 19//32 18//32
f 88//33 39//33 41//33
f 52//34 6//34 5//34
f 79//35 33//35 32//35
f 66//36 20//36 19//36
f 53//37 7//37 6//37
f 80//38 34//38 33//38
f 67//39 21//39 20//39
f 54//40 8//40 7//40
f 81//41 35//41 34//41
f 68//42 22//42 21//42
f 3//2 1//2 4//2
f 55//43 9//43 8//43
f 82//44 36//44 35//44
f 69//45 23//45 22//45
f 46//46 91//46 44//46
f 48//47 84//47 85//47
f 50//1 51//1 49//1
f 48//47 85//47 50//47
f 40//2 42//2 41//2
f 42//3 89//3 44//3
f 44//3 90//3 43//3
f 43//3 88//3 41//3
f 41//3 42//3 44//3
f 45//48 47//48 90//48
f 5//2 6//2 7//2
f 7//2 8//2 9//2
f 9//2 10//2 11//2
f 11//2 12//2 13//2
f 13//2 14//2 15//2
f 15//2 16//2 17//2
f 17//2 18//2 19//2
f 19//2 20//2 21//2
f 21//2 22//2 23//2
f 23//2 24//2 25//2
f 25//2 26//2 27//2
f 27//2 28//2 29//2
f 29//2 30//2 31//2
f 31//2 32//2 33//2
f 33//2 34//2 35//2
f 35//2 36//2 5//2
f 5//2 7//2 9//2
f 9//2 11//2 13//2
f 13//2 15//2 17//2
f 17//2 19//2 21//2
f 21//2 23//2 25//2
f 25//2 27//2 29//2
f 29//2 31//2 33//2
f 33//2 35//2 5//2
f 5//2 9//2 13//2
f 13//2 17//2 21//2
f 21//2 25//2 29//2
f 29//2 33//2 5//2
f 5//2 13//2 21//2
f 46//49 44//49 90//49
f 40//6 39//6 86//6
f 87//2 85//2 84//2
f 38//2 40//2 86//2
f 87//3 84//3 37//3
f 37//3 38//3 86//3
f 88//1 89//1 87//1
f 89//3 88//3 43//3
f 43//3 91//3 44//3
f 91//50 47//50 45//50
f 54//1 53//1 52//1
f 52//1 83//1 82//1
f 82//1 81//1 80//1
f 80//1 79//1 78//1
f 78//1 77//1 76//1
f 76//1 75//1 74//1
f 74//1 73//1 72//1
f 72//1 71//1 70//1
f 70//1 69//1 68//1
f 68//1 67//1 66//1
f 66//1 65//1 64//1
f 64//1 63//1 62//1
f 62//1 61//1 60//1
f 60//1 59//1 58//1
f 58//1 57//1 56//1
f 56//1 55//1 54//1
f 54//1 52//1 82//1
f 82//1 80//1 78//1
f 78//1 76//1 74//1
f 74//1 72//1 70//1
f 70//1 68//1 66//1
f 66//1 64//1 62//1
f 62//1 60//1 58//1
f 58//1 56//1 54//1
f 54//1 82//1 78//1
f 78//1 74//1 70//1
f 70//1 66//1 62//1
f 62//1 58//1 54//1
f 54//1 78//1 70//1
f 56//8 57//8 10//8
f 83//51 52//51 5//51
f 70//10 71//10 24//10
f 57//11 58//11 11//11
f 71//12 72//12 25//12
f 58//13 59//13 12//13
f 50//14 85//14 38//14
f 72//15 73//15 26//15
f 59//16 60//16 13//16
f 84//17 48//17 1//17
f 73//18 74//18 27//18
f 60//19 61//19 14//19
f 74//20 75//20 28//20
f 61//21 62//21 15//21
f 38//2 85//2 87//2
f 75//22 76//22 29//22
f 62//23 63//23 16//23
f 51//24 50//24 3//24
f 76//25 77//25 30//25
f 63//26 64//26 17//26
f 48//27 49//27 2//27
f 77//28 78//28 31//28
f 64//29 65//29 18//29
f 87//30 89//30 42//30
f 78//31 79//31 32//31
f 65//32 66//32 19//32
f 88//33 86//33 39//33
f 52//34 53//34 6//34
f 79//35 80//35 33//35
f 66//36 67//36 20//36
f 53//37 54//37 7//37
f 80//38 81//38 34//38
f 67//39 68//39 21//39
f 54//40 55//40 8//40
f 81//41 82//41 35//41
f 68//42 69//42 22//42
f 3//52 38//52 37//52
f 1//2 2//2 4//2
f 3//52 37//52 1//52
f 55//43 56//43 9//43
f 82//44 83//44 36//44
f 69//45 70//45 23//45
f 46//53 47//53 91//53
